# xmcd
#
# Track frame offsets: 
#        150
#        15319
#        33610
#        51854
#        75147
#        96018
#        120750
#        136874
#        159087
#        175005
#        194287
#
# Disc length: 2828 seconds
#
# Revision: 0
# Processed by: cddbd v1.5.2PL0 Copyright (c) Steve Scherf et al.
# Submitted via: ExactAudioCopy v1.3
#
DISCID=6d0b0a0b
DTITLE=Samantha Fish - Belle Of The West
DYEAR=2017
DGENRE=Country Blues
TTITLE0=American Dream
TTITLE1=Blood In The Water
TTITLE2=Need You More
TTITLE3=Cowtown
TTITLE4=Daughters
TTITLE5=Don't Say You Love Me
TTITLE6=Belle Of The West
TTITLE7=Poor Black Mattie
TTITLE8=No Angels
TTITLE9=Nearing Home
TTITLE10=Gone For Good
EXTD=
EXTT0=
EXTT1=
EXTT2=
EXTT3=
EXTT4=
EXTT5=
EXTT6=
EXTT7=
EXTT8=
EXTT9=
EXTT10=
PLAYORDER=
